<svg xmlns="http://www.w3.org/2000/svg" width="32.92mm" height="33.8mm" viewBox="0 0 93.32 95.8"><defs><style>.cls-1{fill:#eacde4;}</style></defs><g id="Layer_2" data-name="Layer 2"><g id="Layer_1-2" data-name="Layer 1"><path class="cls-1" d="M39.86,46.68c.19-.62.37-1.19.53-1.76.76-2.94,1.49-5.88,2.48-8.76,1.8-5.23,3.89-10.35,6-15.44C51.28,15.08,53.61,9.44,56,3.8c.37-.91.81-1.76,1.26-2.65a3.23,3.23,0,0,1,.65-.91.59.59,0,0,1,1.07.37,5.44,5.44,0,0,1,0,1.56c-.39,2.21-.78,4.41-1.26,6.6-1.25,6-2.53,11.9-3.52,17.9-.58,3.54-1.07,7.07-1.57,10.61-.45,3.11-.81,6.21-1.2,9.32-.06.47-.08.94-.13,1.54a6,6,0,0,0,.52-.34c.52-.47,1.07-.94,1.54-1.46A106.64,106.64,0,0,1,70.1,32.49c.37-.23.73-.46,1.12-.67a1.81,1.81,0,0,1,.66-.18.66.66,0,0,1,.73.67,2,2,0,0,1-.21,1,16.5,16.5,0,0,1-1.2,2.19c-1.57,2.18-3.14,4.36-4.76,6.49-2.43,3.2-4.91,6.37-7.37,9.57a15.26,15.26,0,0,0-1.28,1.92c-.57,1-.47,1.43.5,2a19.47,19.47,0,0,0,2.27,1.17,85.59,85.59,0,0,0,8.68,3c7.45,2.29,14.81,4.81,22,7.74.44.19.91.34,1.36.52a1.86,1.86,0,0,1,.49.29.59.59,0,0,1-.21,1,1.4,1.4,0,0,1-.49.08c-1.75,0-3.5.08-5.26,0-4.44-.18-8.88-.65-13.3-1.2Q64.14,67,54.58,65c-.86-.18-1.73-.31-2.59-.47a2.15,2.15,0,0,0-.57,0c-.68,0-1,.15-1.15.83-.24.91-.45,1.82-.61,2.73q-1,5.88-1.72,11.85c-.29,2.57-.5,5.17-.81,7.74-.24,2-.58,4-.86,6.06a8.45,8.45,0,0,1-.39,1.3,1.07,1.07,0,0,1-1,.83A1,1,0,0,1,44,95a12.53,12.53,0,0,1-.58-2.16c-.26-1.74-.52-3.51-.62-5.25-.27-4.26-.47-8.5-.61-12.76-.07-2.57,0-5.14,0-7.72v-.83c-.39,0-.73,0-1.07.1C37.36,67,33.67,67.84,30,68.72c-6.32,1.46-12.65,3-19,4.31-2.72.55-5.46,1-8.21,1.51-.47.08-1,.1-1.43.16a2.28,2.28,0,0,1-.37,0c-.55,0-.83-.19-.89-.52s.21-.65.53-.83c.7-.39,1.38-.76,2.09-1.12,6.66-3.51,13.48-6.71,20.25-10C26,60.72,29.15,59,32.26,57.39c.39-.21.73-.44,1.2-.73a9.17,9.17,0,0,0-.65-.86c-1.31-1.4-2.56-2.85-4-4.15-2.83-2.6-5.7-5.12-8.6-7.64a138,138,0,0,1-10.19-9.59c-.71-.76-1.39-1.56-2-2.37a5.84,5.84,0,0,1-.5-.73.71.71,0,0,1,1-1c.13.05.26.16.39.21,1.75,1,3.45,2,5.23,3C19.38,36.24,24.68,39,29.86,42a47.7,47.7,0,0,0,7.78,3.59,8.55,8.55,0,0,1,1.18.57C39.16,46.29,39.47,46.47,39.86,46.68Z"/></g></g></svg>