<svg xmlns="http://www.w3.org/2000/svg" width="55.98mm" height="64.03mm" viewBox="0 0 158.67 181.51"><defs><style>.cls-1{fill:#c4add4;}.cls-2{fill:#fcfbf6;fill-rule:evenodd;}</style></defs><g id="Layer_2" data-name="Layer 2"><g id="Layer_1-2" data-name="Layer 1"><path class="cls-1" d="M158.67,117.72a64.21,64.21,0,0,1-.86,11A32.41,32.41,0,0,1,151,143.6a64.29,64.29,0,0,1-8.62,8.68,118.62,118.62,0,0,1-25.65,16.05A135.88,135.88,0,0,1,77.24,180a143.92,143.92,0,0,1-15.64,1.5,56.79,56.79,0,0,1-18.12-2.3,45.69,45.69,0,0,1-5.12-2.07A21.18,21.18,0,0,1,29,167.87a86.71,86.71,0,0,1-5.52-12.19,8.88,8.88,0,0,0-.4-1c-3.11-6.27-4.89-13-6.62-19.72-2.41-9.32-5.58-18.41-8.62-27.49a182.67,182.67,0,0,1-6.1-21.34A79.84,79.84,0,0,1,0,71.31,42.21,42.21,0,0,1,1.61,59.06,59.66,59.66,0,0,1,16.85,32.61,40.37,40.37,0,0,1,27.15,25c1.9-1,3.85-1.9,5.81-2.82,6.9-3.22,13.8-6.33,20.64-9.61a167.78,167.78,0,0,1,30.25-11A51.22,51.22,0,0,1,96.39,0a27.77,27.77,0,0,1,16.22,5,69.19,69.19,0,0,1,18.63,18.81,108.79,108.79,0,0,1,9.95,19.49,269.32,269.32,0,0,1,14.09,48.54c1.21,6.21,2.24,12.48,2.87,18.81C158.38,113,158.5,115.36,158.67,117.72Z"/><path class="cls-2" d="M73.93,29c.21-4.21,3.09-6.39,7.09-5.22A4.42,4.42,0,0,1,84.21,27a7.48,7.48,0,0,1-.53,5.59,4.85,4.85,0,0,1-4.58,2.88,4.57,4.57,0,0,1-4.26-3.14,11.8,11.8,0,0,1-.7-2.41ZM33.71,133.21a4.14,4.14,0,0,1,0-.7,8.49,8.49,0,0,0,.42-2.87,2.41,2.41,0,0,1,2.46-2.29,4.47,4.47,0,0,1,1.7.31,13.13,13.13,0,0,1,4.53,3.26,5.57,5.57,0,0,1-2.13,8.79,4.58,4.58,0,0,1-5.22-1.34A8.58,8.58,0,0,1,33.71,133.21Zm21.68,27.7a3.93,3.93,0,0,0-1.17,2.62,7.28,7.28,0,0,0,3.25,6.39,4.5,4.5,0,0,0,6.44-1.81,6.55,6.55,0,0,0-4.2-9.22A3.34,3.34,0,0,0,56,160.22,3.58,3.58,0,0,1,55.39,160.91Zm77.2-38.68c-.05.25-.09.5-.14.76a7.09,7.09,0,0,1-.34,1.48,4.28,4.28,0,0,1-7.24,1.54,6.93,6.93,0,0,1-1.92-4.37,7.94,7.94,0,0,0-.32-1.49,3,3,0,0,1,2-4.21,6.24,6.24,0,0,1,7,2.61A7.89,7.89,0,0,1,132.59,122.23ZM24.6,54.5h0l-.06.33c.05,2.23.43,3.83,1.55,5.11a4.61,4.61,0,0,0,4.53,1.71,4.46,4.46,0,0,0,3.56-3.25c1.07-3.15-.63-6.93-4-7.68l-.32-.09a3.28,3.28,0,0,1-.64-.23,3.08,3.08,0,0,0-4.1,1.92,16.12,16.12,0,0,0-.53,2.18Zm91.26,91.71a4.42,4.42,0,0,1-2.93,4.47,4.07,4.07,0,0,1-4.58-1.38,8.61,8.61,0,0,1-1.92-5.81,7.11,7.11,0,0,1,1.81-4,2.46,2.46,0,0,1,2.45-.8,3.69,3.69,0,0,1,1.49.64A9.65,9.65,0,0,1,115.86,146.21ZM25,92.82v.53a6.7,6.7,0,0,0,2.93,5.91,4.32,4.32,0,0,0,4.58.38,4.19,4.19,0,0,0,2.29-3.84,7,7,0,0,0-3.68-6.39,1.57,1.57,0,0,0-.69-.32A4.06,4.06,0,0,0,25,92.82Zm71,55.31a5.54,5.54,0,0,1,.21.57,4.74,4.74,0,0,0,.37.86A8,8,0,0,1,98,153.51a3.65,3.65,0,0,1-6,3.09,6.61,6.61,0,0,1-2.45-4.37c-.14-.78-.24-1.56-.33-2.35h0L89,148.71a2,2,0,0,1,.64-2l.09-.06a10.44,10.44,0,0,1,2.94-1.7A2.61,2.61,0,0,1,96,148.13Zm-1-35.76a7.8,7.8,0,0,0-2.24,5.28,7.36,7.36,0,0,0,.75,4,3.84,3.84,0,0,0,3.89,1.92,5,5,0,0,0,4-3.78,7.2,7.2,0,0,0-1.44-5.92c-.16-.21-.31-.41-.45-.61h0c-.14-.2-.29-.4-.45-.61A2.47,2.47,0,0,0,95,112.37Zm-35,27.5c3.46-.59,6.28,3.46,5.43,6.82a4.26,4.26,0,0,1-6,2.93,6.46,6.46,0,0,1-3.41-7.25A3.23,3.23,0,0,1,60,139.87ZM131.9,93.46a8.21,8.21,0,0,0-1.33,4.74,6.67,6.67,0,0,0,.9,3.52,4.08,4.08,0,0,0,4.16,2.13,3.78,3.78,0,0,0,3.19-3.36,9,9,0,0,0-2.5-7.62C135,91.38,133,91.75,131.9,93.46ZM49.64,111.88h0a4.46,4.46,0,0,0,.37.87,6.41,6.41,0,0,1,.9,4.42,3.31,3.31,0,0,1-2.34,2.88A3.35,3.35,0,0,1,44.89,119a8.08,8.08,0,0,1-1.7-3.52,7.71,7.71,0,0,0-.69-1.86,2.83,2.83,0,0,1,1-3.79,8.09,8.09,0,0,0,.77-.53c.25-.18.51-.37.77-.53a2.92,2.92,0,0,1,3.15-.16,2.4,2.4,0,0,1,1.22,2.72A5.59,5.59,0,0,1,49.64,111.88Zm59.61-77.09a3.72,3.72,0,0,0,2-3.41c0-2.34-1.55-5-3.62-6.61a3.06,3.06,0,0,0-5.12,2.14,13,13,0,0,0,.11,3.78,5.56,5.56,0,0,0,2.4,3.78A3.77,3.77,0,0,0,109.25,34.79ZM73,122.34c0-.41,0-.82,0-1.23,0-.82,0-1.63,0-2.45a2.45,2.45,0,0,1,3.3-2.18,4.93,4.93,0,0,1,1.86,1.06,10.83,10.83,0,0,1,2.72,4,4.73,4.73,0,0,1,.11,3.62,3.91,3.91,0,0,1-3.2,2.77,3.77,3.77,0,0,1-3.89-1.7A5.6,5.6,0,0,1,73,122.34Zm50.82-62.77a5.41,5.41,0,0,0,3.25-5.06,4.65,4.65,0,0,0-2.93-4.59,4.73,4.73,0,0,0-5.27,1.6,6,6,0,0,0,.1,6.93A4.25,4.25,0,0,0,123.85,59.57ZM72.12,73.79a4.77,4.77,0,0,1-.75,2.67,3.79,3.79,0,0,1-6.28.43,7.8,7.8,0,0,1-1.6-5.39,6.46,6.46,0,0,1,.18-1.31c0-.15.06-.3.08-.44a3,3,0,0,1,4.53-2.14A7.28,7.28,0,0,1,72.12,73.79ZM93.07,53.71l.15-.48a5.26,5.26,0,0,0-2-3.68l-.24-.2a3,3,0,0,1-.82-.86c-.91-1.6-3.41-1.92-5,0a6.48,6.48,0,0,0,0,7.62,4.16,4.16,0,0,0,7.19-.43,10.73,10.73,0,0,0,.76-2Zm28.87,27a5.57,5.57,0,0,1-2.62,4.74,4,4,0,0,1-6.18-2c-1.11-3.14.06-6.23,3.79-7.41a3.37,3.37,0,0,1,3.78,1.18A5.36,5.36,0,0,1,121.94,80.72ZM96.42,86.34c.08-.3.16-.59.26-.88-.11-2.87-3.25-6.12-6.07-6.12a2.78,2.78,0,0,0-3,2.87,19.56,19.56,0,0,0,.37,3,5.81,5.81,0,0,0,2.45,3.89,3.72,3.72,0,0,0,5.55-1.38A6.09,6.09,0,0,0,96.42,86.34Zm-28.88-41a4,4,0,0,1-2.4,3.89,3.88,3.88,0,0,1-4.37-1.17,7.26,7.26,0,0,1-1.6-6.45,4.22,4.22,0,0,1,1.39-2.24,3,3,0,0,1,4.42.8c.32.48.69,1,1.07,1.44h0A5.48,5.48,0,0,1,67.54,45.34ZM41,66.22c-.06.21-.1.4-.15.54.11,2.35.59,3.94,2,5.12a3.7,3.7,0,0,0,6-1.39,4.46,4.46,0,0,0-.64-4.58,4.83,4.83,0,0,1-.91-1.81,2.67,2.67,0,0,0-3.41-1.87,3.39,3.39,0,0,0-2.24,1.92A15.82,15.82,0,0,0,41,66.22ZM73.66,94.36a5,5,0,0,1-1,3,3.93,3.93,0,0,1-6,.32,6.1,6.1,0,0,1-1.12-6.77,3.13,3.13,0,0,1,3.46-1.81l.14,0a.28.28,0,0,0,.13,0C72.28,89.57,73.66,91.22,73.66,94.36Zm32.24,5.76v3.35a4.81,4.81,0,0,0,1.38,3.41,3.31,3.31,0,0,0,5.49-1c1.07-2.45-.85-7.09-3.3-8.1A2.5,2.5,0,0,0,105.9,100.12Z"/></g></g></svg>